<svg id="Слой_1" data-name="Слой 1" xmlns="http://www.w3.org/2000/svg" viewBox="0 0 99.729 67.25">
  <defs>
    <style>
      .cls-1 {
        fill: none;
      }

      .cls-2, .cls-3 {
        fill: #f15a24;
      }

      .cls-3 {
        stroke: #f15a24;
        stroke-miterlimit: 10;
      }
    </style>
  </defs>
  <g>
    <path d="M32.5,78.484a28.149,28.149,0,0,1-11.228,1.944c-11.985,0-21-7.286-21-20.7,0-12.811,9.02-21.493,22.2-21.493,5.3,0,8.641,1.093,10.092,1.821l-1.324,4.311a20.662,20.662,0,0,0-8.579-1.7c-9.967,0-16.59,6.132-16.59,16.878C6.074,69.56,12.066,76,22.412,76a22.709,22.709,0,0,0,8.957-1.7Z" transform="translate(-0.271 -13.177)"/>
    <path class="cls-1" d="M46.507,66.949,42.092,79.82H36.415L50.86,38.9h6.623L71.991,79.82H66.125L61.583,66.949ZM60.448,62.82,56.284,51.041c-.946-2.671-1.576-5.1-2.207-7.467H53.95c-.631,2.428-1.324,4.918-2.144,7.407L47.643,62.82Z" transform="translate(-0.271 -13.177)"/>
    <path d="M81.454,43.392H68.522V38.9H100v4.494h-13V79.82H81.454Z" transform="translate(-0.271 -13.177)"/>
  </g>
  <path class="cls-2" d="M69.419,16.276V17.56a5.4,5.4,0,0,0-2.17.891,4.955,4.955,0,0,0-1.36,1.677,25.747,25.747,0,0,0-1.3,3.119L54.2,52.469H49.369L36.624,23.457a16.738,16.738,0,0,0-2.46-4.193,4.726,4.726,0,0,0-2.98-1.7V16.276h13.05V17.56a5.77,5.77,0,0,0-2.858.97,2.756,2.756,0,0,0-.932,2.306,7.616,7.616,0,0,0,.245,1.809,23.126,23.126,0,0,0,1.039,2.935l1.039,2.568H57.01l1.131-3.381a22.241,22.241,0,0,0,.7-2.319,8.426,8.426,0,0,0,.245-1.927,2.723,2.723,0,0,0-.367-1.506,2.375,2.375,0,0,0-1.116-.878,11.076,11.076,0,0,0-2.277-.577V16.276ZM50.561,47.333l5.807-16.9H43.592Z" transform="translate(-0.271 -13.177)"/>
  <line class="cls-3" x1="8.729" y1="0.823" x2="33.729" y2="13.823"/>
  <path class="cls-3" d="M32.72,50" transform="translate(-0.271 -13.177)"/>
  <line class="cls-3" x1="8.729" y1="42.823" x2="33.729" y2="30.587"/>
  <line class="cls-3" x1="8.729" y1="22.823" x2="33.729" y2="22.587"/>
  <line class="cls-3" x1="91.729" y1="0.444" x2="66.573" y2="13.444"/>
  <line class="cls-3" x1="91.729" y1="42.444" x2="66.573" y2="30.208"/>
  <line class="cls-3" x1="91.729" y1="22.444" x2="66.573" y2="22.208"/>
</svg>
